<svg xmlns="http://www.w3.org/2000/svg" viewBox="0 0 719.85 579.65"><defs><style>.cls-1{fill:#d43f36;}.cls-2{fill:#4585f4;}.cls-3{fill:#f7c542;}.cls-4{fill:#099e57;}</style></defs><title>Ativo 1</title><g id="Camada_2" data-name="Camada 2"><g id="Camada_1-2" data-name="Camada 1"><path class="cls-1" d="M101,122.46,174.69,5.34A11.43,11.43,0,0,1,184.36,0h156a11.43,11.43,0,0,1,9.89,17.16l-148,255.73a11.43,11.43,0,0,1-19.74.08L100.85,134.35A11.43,11.43,0,0,1,101,122.46Z"/><path class="cls-2" d="M100.78,154.8l244.9,407.53a11.43,11.43,0,0,1-9.8,17.32H188.47a11.43,11.43,0,0,1-9.65-5.3L1.78,295.86a11.43,11.43,0,0,1-.08-12.13l79.55-129A11.43,11.43,0,0,1,100.78,154.8Z"/><path class="cls-3" d="M618.83,457.19,545.17,574.3a11.43,11.43,0,0,1-9.68,5.34h-156a11.43,11.43,0,0,1-9.89-17.16l148-255.73a11.43,11.43,0,0,1,19.74-.08L619,445.3A11.43,11.43,0,0,1,618.83,457.19Z"/><path class="cls-4" d="M619.08,424.85,374.18,17.32A11.43,11.43,0,0,1,384,0H531.38A11.43,11.43,0,0,1,541,5.3l177,278.49a11.43,11.43,0,0,1,.08,12.13L638.61,425A11.43,11.43,0,0,1,619.08,424.85Z"/></g></g></svg>